<svg version="1.2" xmlns="http://www.w3.org/2000/svg" viewBox="0 0 2731 4096" width="2731" height="4096">
	<title>logo_parlament_color-svg</title>
	<defs>
		<linearGradient id="g1" x1="282.1" y1="2047.6" x2="2447" y2="2047.6" gradientUnits="userSpaceOnUse">
			<stop offset="0" stop-color="#d4145a"/>
			<stop offset="0" stop-color="#ce155c"/>
			<stop offset=".3" stop-color="#951f6f"/>
			<stop offset=".5" stop-color="#69277e"/>
			<stop offset=".7" stop-color="#492c89"/>
			<stop offset=".9" stop-color="#353090"/>
			<stop offset="1" stop-color="#2e3192"/>
		</linearGradient>
		<linearGradient id="g2" x1="282.1" y1="2047.6" x2="2447" y2="2047.6" gradientUnits="userSpaceOnUse">
			<stop offset="0" stop-color="#d4145a"/>
			<stop offset="0" stop-color="#ce155c"/>
			<stop offset=".3" stop-color="#951f6f"/>
			<stop offset=".5" stop-color="#69277e"/>
			<stop offset=".7" stop-color="#492c89"/>
			<stop offset=".9" stop-color="#353090"/>
			<stop offset="1" stop-color="#2e3192"/>
		</linearGradient>
		<linearGradient id="g3" x1="282.1" y1="2047.6" x2="2447" y2="2047.6" gradientUnits="userSpaceOnUse">
			<stop offset="0" stop-color="#d4145a"/>
			<stop offset="0" stop-color="#ce155c"/>
			<stop offset=".3" stop-color="#951f6f"/>
			<stop offset=".5" stop-color="#69277e"/>
			<stop offset=".7" stop-color="#492c89"/>
			<stop offset=".9" stop-color="#353090"/>
			<stop offset="1" stop-color="#2e3192"/>
		</linearGradient>
		<linearGradient id="g4" x1="282.1" y1="2047.6" x2="2447" y2="2047.6" gradientUnits="userSpaceOnUse">
			<stop offset="0" stop-color="#d4145a"/>
			<stop offset="0" stop-color="#ce155c"/>
			<stop offset=".3" stop-color="#951f6f"/>
			<stop offset=".5" stop-color="#69277e"/>
			<stop offset=".7" stop-color="#492c89"/>
			<stop offset=".9" stop-color="#353090"/>
			<stop offset="1" stop-color="#2e3192"/>
		</linearGradient>
		<linearGradient id="g5" x1="282.1" y1="2047.6" x2="2447" y2="2047.6" gradientUnits="userSpaceOnUse">
			<stop offset="0" stop-color="#d4145a"/>
			<stop offset="0" stop-color="#ce155c"/>
			<stop offset=".3" stop-color="#951f6f"/>
			<stop offset=".5" stop-color="#69277e"/>
			<stop offset=".7" stop-color="#492c89"/>
			<stop offset=".9" stop-color="#353090"/>
			<stop offset="1" stop-color="#2e3192"/>
		</linearGradient>
		<linearGradient id="g6" x1="282.1" y1="2047.6" x2="2447" y2="2047.6" gradientUnits="userSpaceOnUse">
			<stop offset="0" stop-color="#d4145a"/>
			<stop offset="0" stop-color="#ce155c"/>
			<stop offset=".3" stop-color="#951f6f"/>
			<stop offset=".5" stop-color="#69277e"/>
			<stop offset=".7" stop-color="#492c89"/>
			<stop offset=".9" stop-color="#353090"/>
			<stop offset="1" stop-color="#2e3192"/>
		</linearGradient>
		<linearGradient id="g7" x1="282.1" y1="2047.6" x2="2447" y2="2047.6" gradientUnits="userSpaceOnUse">
			<stop offset="0" stop-color="#d4145a"/>
			<stop offset="0" stop-color="#ce155c"/>
			<stop offset=".3" stop-color="#951f6f"/>
			<stop offset=".5" stop-color="#69277e"/>
			<stop offset=".7" stop-color="#492c89"/>
			<stop offset=".9" stop-color="#353090"/>
			<stop offset="1" stop-color="#2e3192"/>
		</linearGradient>
		<linearGradient id="g8" x1="282.1" y1="2047.6" x2="2447" y2="2047.6" gradientUnits="userSpaceOnUse">
			<stop offset="0" stop-color="#d4145a"/>
			<stop offset="0" stop-color="#ce155c"/>
			<stop offset=".3" stop-color="#951f6f"/>
			<stop offset=".5" stop-color="#69277e"/>
			<stop offset=".7" stop-color="#492c89"/>
			<stop offset=".9" stop-color="#353090"/>
			<stop offset="1" stop-color="#2e3192"/>
		</linearGradient>
		<linearGradient id="g9" x1="282.1" y1="2047.6" x2="2447" y2="2047.6" gradientUnits="userSpaceOnUse">
			<stop offset="0" stop-color="#d4145a"/>
			<stop offset="0" stop-color="#ce155c"/>
			<stop offset=".3" stop-color="#951f6f"/>
			<stop offset=".5" stop-color="#69277e"/>
			<stop offset=".7" stop-color="#492c89"/>
			<stop offset=".9" stop-color="#353090"/>
			<stop offset="1" stop-color="#2e3192"/>
		</linearGradient>
		<linearGradient id="g10" x1="282.1" y1="2047.6" x2="2447" y2="2047.6" gradientUnits="userSpaceOnUse">
			<stop offset="0" stop-color="#d4145a"/>
			<stop offset="0" stop-color="#ce155c"/>
			<stop offset=".3" stop-color="#951f6f"/>
			<stop offset=".5" stop-color="#69277e"/>
			<stop offset=".7" stop-color="#492c89"/>
			<stop offset=".9" stop-color="#353090"/>
			<stop offset="1" stop-color="#2e3192"/>
		</linearGradient>
		<linearGradient id="g11" x1="282.1" y1="2047.6" x2="2447" y2="2047.6" gradientUnits="userSpaceOnUse">
			<stop offset="0" stop-color="#d4145a"/>
			<stop offset="0" stop-color="#ce155c"/>
			<stop offset=".3" stop-color="#951f6f"/>
			<stop offset=".5" stop-color="#69277e"/>
			<stop offset=".7" stop-color="#492c89"/>
			<stop offset=".9" stop-color="#353090"/>
			<stop offset="1" stop-color="#2e3192"/>
		</linearGradient>
		<linearGradient id="g12" x1="282.1" y1="2047.6" x2="2447" y2="2047.6" gradientUnits="userSpaceOnUse">
			<stop offset="0" stop-color="#d4145a"/>
			<stop offset="0" stop-color="#ce155c"/>
			<stop offset=".3" stop-color="#951f6f"/>
			<stop offset=".5" stop-color="#69277e"/>
			<stop offset=".7" stop-color="#492c89"/>
			<stop offset=".9" stop-color="#353090"/>
			<stop offset="1" stop-color="#2e3192"/>
		</linearGradient>
		<linearGradient id="g13" x1="282.1" y1="2047.6" x2="2447" y2="2047.6" gradientUnits="userSpaceOnUse">
			<stop offset="0" stop-color="#d4145a"/>
			<stop offset="0" stop-color="#ce155c"/>
			<stop offset=".3" stop-color="#951f6f"/>
			<stop offset=".5" stop-color="#69277e"/>
			<stop offset=".7" stop-color="#492c89"/>
			<stop offset=".9" stop-color="#353090"/>
			<stop offset="1" stop-color="#2e3192"/>
		</linearGradient>
		<linearGradient id="g14" x1="282.1" y1="2047.6" x2="2447" y2="2047.6" gradientUnits="userSpaceOnUse">
			<stop offset="0" stop-color="#d4145a"/>
			<stop offset="0" stop-color="#ce155c"/>
			<stop offset=".3" stop-color="#951f6f"/>
			<stop offset=".5" stop-color="#69277e"/>
			<stop offset=".7" stop-color="#492c89"/>
			<stop offset=".9" stop-color="#353090"/>
			<stop offset="1" stop-color="#2e3192"/>
		</linearGradient>
		<linearGradient id="g15" x1="282.1" y1="2047.6" x2="2447" y2="2047.6" gradientUnits="userSpaceOnUse">
			<stop offset="0" stop-color="#d4145a"/>
			<stop offset="0" stop-color="#ce155c"/>
			<stop offset=".3" stop-color="#951f6f"/>
			<stop offset=".5" stop-color="#69277e"/>
			<stop offset=".7" stop-color="#492c89"/>
			<stop offset=".9" stop-color="#353090"/>
			<stop offset="1" stop-color="#2e3192"/>
		</linearGradient>
	</defs>
	<style>
		.s0 { fill: url(#g1) } 
		.s1 { fill: url(#g2) } 
		.s2 { fill: url(#g3) } 
		.s3 { fill: url(#g4) } 
		.s4 { fill: url(#g5) } 
		.s5 { fill: url(#g6) } 
		.s6 { fill: url(#g7) } 
		.s7 { fill: url(#g8) } 
		.s8 { fill: url(#g9) } 
		.s9 { fill: url(#g10) } 
		.s10 { fill: url(#g11) } 
		.s11 { fill: url(#g12) } 
		.s12 { fill: url(#g13) } 
		.s13 { fill: url(#g14) } 
		.s14 { fill: url(#g15) } 
	</style>
	<path id="Layer" class="s0" d="m1569.4 485.7c0 145.5-68 274.9-173.9 358.7-105.9-83.8-173.9-213.2-173.9-358.7 0-145.5 68-274.9 173.9-358.7 105.9 83.8 173.9 213.2 173.9 358.7z"/>
	<path id="Layer" class="s1" d="m1569.4 485.7c0 145.5-68 274.9-173.9 358.7-105.9-83.8-173.9-213.2-173.9-358.7 0-145.5 68-274.9 173.9-358.7 105.9 83.8 173.9 213.2 173.9 358.7z"/>
	<path id="Layer" class="s2" d="m1351 1339.1c-302.8-107.5-532.1-370.1-592.2-692.4 302.8 107.6 532.2 370.1 592.2 692.4z"/>
	<path id="Layer" class="s3" d="m1569.4 485.7c0 145.5-68 274.9-173.9 358.7-105.9-83.8-173.9-213.2-173.9-358.7 0-145.5 68-274.9 173.9-358.7 105.9 83.8 173.9 213.2 173.9 358.7z"/>
	<path id="Layer" class="s4" d="m1351 1339.1c-302.8-107.5-532.1-370.1-592.2-692.4 302.8 107.6 532.2 370.1 592.2 692.4z"/>
	<path id="Layer" class="s5" d="m1351 1860.8c-302.8-107.5-532.2-370.1-592.2-692.4 302.8 107.5 532.2 370.1 592.2 692.4z"/>
	<path id="Layer" class="s6" d="m1351 2353.5c-302.8-107.5-532.2-370.1-592.2-692.4 302.8 107.5 532.2 370.1 592.2 692.4z"/>
	<path id="Layer" class="s7" d="m1351 2875.3c-302.8-107.5-532.2-370.1-592.2-692.4 302.8 107.5 532.2 370.1 592.2 692.4z"/>
	<path id="Layer" class="s8" d="m1411 1339.1c302.7-107.5 532.1-370.1 592.1-692.4-302.7 107.6-532.1 370.1-592.1 692.4z"/>
	<path id="Layer" class="s9" d="m1411 1339.1c302.7-107.5 532.1-370.1 592.1-692.4-302.7 107.6-532.1 370.1-592.1 692.4z"/>
	<path id="Layer" class="s10" d="m1411 1860.8c302.7-107.5 532.1-370.1 592.1-692.4-302.7 107.5-532.1 370.1-592.1 692.4z"/>
	<path id="Layer" class="s11" d="m1411 2353.5c302.7-107.5 532.1-370.1 592.1-692.4-302.7 107.5-532.1 370.1-592.1 692.4z"/>
	<path id="Layer" class="s12" d="m1411 2875.3c302.7-107.5 532.1-370.1 592.1-692.4-302.7 107.5-532.1 370.1-592.1 692.4z"/>
	<path id="Layer" class="s13" d="m2447 3204.8c-220 0-437.9-0.2-624.2-0.2-125.6 216-289.5 497.7-444.2 763.6-18.2-30.5-38.7-64.4-60.5-101.1-8.7-14.7-17.7-29.6-27-44.9 19.9-30 40.3-60.8 60.9-91.8 8.2-12.4 16.6-24.9 24.9-37.5 143-215.2 293.5-441.4 393.9-592.5 170.7 26.4 425.5 65.7 676.2 104.4z"/>
	<path id="Layer" class="s14" d="m1291.1 3822.1c-7.3 10.8-14.2 21.3-21.2 31.8-185.1-237-382.4-489.4-535.2-684.8-151.6 10.5-321.4 22.1-452.7 31.2 158.7-41.3 379.3-98.6 550.5-143 118.8 197.8 314.9 525 458.6 764.8z"/>
</svg>